<svg xmlns="http://www.w3.org/2000/svg" xmlns:xlink="http://www.w3.org/1999/xlink" contentStyleType="text/css" height="503px" preserveAspectRatio="none" style="width:1451px;height:503px;background:#1B1B1B;" version="1.1" viewBox="0 0 1451 503" width="1451px" zoomAndPan="magnify"><defs/><g><rect fill="#1B1B1B" height="503" style="stroke:none;stroke-width:1.0;" width="1451" x="0" y="0"/><g id="users"><rect fill="#313139" height="36.2969" style="stroke:#E7E7E7;stroke-width:0.5;" width="59" x="928.32" y="101.01"/><text fill="#FFFFFF" font-family="sans-serif" font-size="14" lengthAdjust="spacing" textLength="39" x="938.32" y="124.0051">users</text></g><g id="users/id"><ellipse cx="780.8214" cy="23.5071" fill="#313139" rx="14.8214" ry="12.4571" style="stroke:#E7E7E7;stroke-width:0.5;"/><text fill="#FFFFFF" font-family="sans-serif" font-size="14" lengthAdjust="spacing" textLength="12" x="774.8214" y="30.0451">id</text></g><g id="users/username"><ellipse cx="882.8175" cy="23.5136" fill="#313139" rx="52.4975" ry="14.5236" style="stroke:#E7E7E7;stroke-width:0.5;"/><text fill="#FFFFFF" font-family="sans-serif" font-size="14" lengthAdjust="spacing" textLength="70" x="847.8175" y="27.9851">username</text></g><g id="users/displayName"><ellipse cx="1032.8201" cy="23.51" fill="#313139" rx="62.6001" ry="14.92" style="stroke:#E7E7E7;stroke-width:0.5;"/><text fill="#FFFFFF" font-family="sans-serif" font-size="14" lengthAdjust="spacing" textLength="87" x="989.3201" y="27.5851">displayName</text></g><g id="users/passwordSalt"><ellipse cx="1194.8186" cy="23.5097" fill="#313139" rx="64.4486" ry="15.2897" style="stroke:#E7E7E7;stroke-width:0.5;"/><text fill="#FFFFFF" font-family="sans-serif" font-size="14" lengthAdjust="spacing" textLength="92" x="1148.8186" y="27.2151">passwordSalt</text></g><g id="users/passwordHashed"><ellipse cx="1369.8153" cy="23.5051" fill="#313139" rx="75.5253" ry="17.5051" style="stroke:#E7E7E7;stroke-width:0.5;"/><text fill="#FFFFFF" font-family="sans-serif" font-size="14" lengthAdjust="spacing" textLength="120" x="1309.8153" y="24.9951">passwordHashed</text></g><g id="notes"><rect fill="#313139" height="36.2969" style="stroke:#E7E7E7;stroke-width:0.5;" width="60" x="321.82" y="460.83"/><text fill="#FFFFFF" font-family="sans-serif" font-size="14" lengthAdjust="spacing" textLength="40" x="331.82" y="483.8251">notes</text></g><g id="notes/id"><ellipse cx="20.8214" cy="386.3071" fill="#313139" rx="14.8214" ry="12.4571" style="stroke:#E7E7E7;stroke-width:0.5;"/><text fill="#FFFFFF" font-family="sans-serif" font-size="14" lengthAdjust="spacing" textLength="12" x="14.8214" y="392.8451">id</text></g><g id="notes/username"><ellipse cx="122.8175" cy="386.3136" fill="#313139" rx="52.4975" ry="14.5236" style="stroke:#E7E7E7;stroke-width:0.5;"/><text fill="#FFFFFF" font-family="sans-serif" font-size="14" lengthAdjust="spacing" textLength="70" x="87.8175" y="390.7851">username</text></g><g id="notes/heading"><ellipse cx="252.818" cy="386.3136" fill="#313139" rx="42.598" ry="14.5236" style="stroke:#E7E7E7;stroke-width:0.5;"/><text fill="#FFFFFF" font-family="sans-serif" font-size="14" lengthAdjust="spacing" textLength="56" x="224.818" y="390.7851">heading</text></g><g id="notes/text"><ellipse cx="351.8248" cy="386.3136" fill="#313139" rx="21.3848" ry="14.5236" style="stroke:#E7E7E7;stroke-width:0.5;"/><text fill="#FFFFFF" font-family="sans-serif" font-size="14" lengthAdjust="spacing" textLength="26" x="338.8248" y="390.7851">text</text></g><g id="tags"><rect fill="#313139" height="36.2969" style="stroke:#E7E7E7;stroke-width:0.5;" width="50" x="259.82" y="101.01"/><text fill="#FFFFFF" font-family="sans-serif" font-size="14" lengthAdjust="spacing" textLength="30" x="269.82" y="124.0051">tags</text></g><g id="tags/noteID"><ellipse cx="195.8169" cy="23.5136" fill="#313139" rx="35.5269" ry="14.5236" style="stroke:#E7E7E7;stroke-width:0.5;"/><text fill="#FFFFFF" font-family="sans-serif" font-size="14" lengthAdjust="spacing" textLength="46" x="172.8169" y="27.9851">noteID</text></g><g id="tags/tag"><ellipse cx="284.8163" cy="23.5136" fill="#313139" rx="18.5563" ry="14.5236" style="stroke:#E7E7E7;stroke-width:0.5;"/><text fill="#FFFFFF" font-family="sans-serif" font-size="14" lengthAdjust="spacing" textLength="22" x="273.8163" y="27.9851">tag</text></g><g id="permissions"><rect fill="#313139" height="36.2969" style="stroke:#E7E7E7;stroke-width:0.5;" width="104" x="444.82" y="101.01"/><text fill="#FFFFFF" font-family="sans-serif" font-size="14" lengthAdjust="spacing" textLength="84" x="454.82" y="124.0051">permissions</text></g><g id="permissions/noteID"><ellipse cx="373.8169" cy="23.5136" fill="#313139" rx="35.5269" ry="14.5236" style="stroke:#E7E7E7;stroke-width:0.5;"/><text fill="#FFFFFF" font-family="sans-serif" font-size="14" lengthAdjust="spacing" textLength="46" x="350.8169" y="27.9851">noteID</text></g><g id="permissions/username"><ellipse cx="496.8175" cy="23.5136" fill="#313139" rx="52.4975" ry="14.5236" style="stroke:#E7E7E7;stroke-width:0.5;"/><text fill="#FFFFFF" font-family="sans-serif" font-size="14" lengthAdjust="spacing" textLength="70" x="461.8175" y="27.9851">username</text></g><g id="permissions/permissionMode"><ellipse cx="657.8211" cy="23.5142" fill="#313139" rx="73.4711" ry="17.0942" style="stroke:#E7E7E7;stroke-width:0.5;"/><text fill="#FFFFFF" font-family="sans-serif" font-size="14" lengthAdjust="spacing" textLength="115" x="600.3211" y="25.4151">permissionMode</text></g><g id="creates"><polygon fill="#313139" points="705.34,285.0486,758.8172,258.31,812.2944,285.0486,758.8172,311.7872" style="stroke:#E7E7E7;stroke-width:0.5;"/><text fill="#FFFFFF" font-family="sans-serif" font-size="14" lengthAdjust="spacing" textLength="52" x="732.8172" y="289.8953">creates</text></g><g id="tagged"><polygon fill="#313139" points="288.84,285.0486,340.8172,259.06,392.7944,285.0486,340.8172,311.0372" style="stroke:#E7E7E7;stroke-width:0.5;"/><text fill="#FFFFFF" font-family="sans-serif" font-size="14" lengthAdjust="spacing" textLength="49" x="316.3172" y="289.8953">tagged</text></g><g id="shares"><polygon fill="#313139" points="445.84,285.0486,496.8172,259.56,547.7944,285.0486,496.8172,310.5372" style="stroke:#E7E7E7;stroke-width:0.5;"/><text fill="#FFFFFF" font-family="sans-serif" font-size="14" lengthAdjust="spacing" textLength="47" x="473.3172" y="289.8953">shares</text></g><!--link users/id to users--><g id="link_users/id_users"><path d="M780.82,36.29 C780.82,60.38 780.82,110.13 780.82,110.13 C780.82,110.13 877.81,110.13 928.2,110.13 " fill="none" id="users/id-users" style="stroke:#E7E7E7;stroke-width:1.0;"/></g><!--link users/username to users--><g id="link_users/username_users"><path d="M935.48,24.13 C945.42,24.13 952.77,24.13 952.77,24.13 C952.77,24.13 952.77,73.22 952.77,100.84 " fill="none" id="users/username-users" style="stroke:#E7E7E7;stroke-width:1.0;"/></g><!--link users/displayName to users--><g id="link_users/displayName_users"><path d="M978.77,31.33 C978.77,46.42 978.77,79.86 978.77,100.85 " fill="none" id="users/displayName-users" style="stroke:#E7E7E7;stroke-width:1.0;"/></g><!--link users/passwordSalt to users--><g id="link_users/passwordSalt_users"><path d="M1194.82,39.12 C1194.82,64.8 1194.82,113.13 1194.82,113.13 C1194.82,113.13 1050.89,113.13 987.36,113.13 " fill="none" id="users/passwordSalt-users" style="stroke:#E7E7E7;stroke-width:1.0;"/></g><!--link users/passwordHashed to users--><g id="link_users/passwordHashed_users"><path d="M1369.82,41.38 C1369.82,70.78 1369.82,126.13 1369.82,126.13 C1369.82,126.13 1082.59,126.13 987.78,126.13 " fill="none" id="users/passwordHashed-users" style="stroke:#E7E7E7;stroke-width:1.0;"/></g><!--link notes/id to notes--><g id="link_notes/id_notes"><path d="M20.82,399.23 C20.82,426.02 20.82,485.13 20.82,485.13 C20.82,485.13 239.86,485.13 321.57,485.13 " fill="none" id="notes/id-notes" style="stroke:#E7E7E7;stroke-width:1.0;"/></g><!--link notes/username to notes--><g id="link_notes/username_notes"><path d="M122.82,401.04 C122.82,425.81 122.82,473.13 122.82,473.13 C122.82,473.13 259.12,473.13 321.41,473.13 " fill="none" id="notes/username-notes" style="stroke:#E7E7E7;stroke-width:1.0;"/></g><!--link notes/heading to notes--><g id="link_notes/heading_notes"><path d="M295.46,387.13 C310.94,387.13 324.69,387.13 324.69,387.13 C324.69,387.13 324.69,433.55 324.69,460.39 " fill="none" id="notes/heading-notes" style="stroke:#E7E7E7;stroke-width:1.0;"/></g><!--link notes/text to notes--><g id="link_notes/text_notes"><path d="M351.82,401.2 C351.82,417.37 351.82,443.21 351.82,460.62 " fill="none" id="notes/text-notes" style="stroke:#E7E7E7;stroke-width:1.0;"/></g><!--link tags/noteID to tags--><g id="link_tags/noteID_tags"><path d="M220.79,34.22 C220.79,59.37 220.79,120.13 220.79,120.13 C220.79,120.13 241.61,120.13 259.51,120.13 " fill="none" id="tags/noteID-tags" style="stroke:#E7E7E7;stroke-width:1.0;"/></g><!--link tags/tag to tags--><g id="link_tags/tag_tags"><path d="M284.82,38.45 C284.82,55.27 284.82,82.59 284.82,100.72 " fill="none" id="tags/tag-tags" style="stroke:#E7E7E7;stroke-width:1.0;"/></g><!--link permissions/noteID to permissions--><g id="link_permissions/noteID_permissions"><path d="M401.07,33.12 C401.07,57.56 401.07,120.13 401.07,120.13 C401.07,120.13 422.11,120.13 444.47,120.13 " fill="none" id="permissions/noteID-permissions" style="stroke:#E7E7E7;stroke-width:1.0;"/></g><!--link permissions/username to permissions--><g id="link_permissions/username_permissions"><path d="M496.82,38.45 C496.82,55.27 496.82,82.59 496.82,100.72 " fill="none" id="permissions/username-permissions" style="stroke:#E7E7E7;stroke-width:1.0;"/></g><!--link permissions/permissionMode to permissions--><g id="link_permissions/permissionMode_permissions"><path d="M644.85,40.48 C644.85,70.33 644.85,129.13 644.85,129.13 C644.85,129.13 591.63,129.13 549.01,129.13 " fill="none" id="permissions/permissionMode-permissions" style="stroke:#E7E7E7;stroke-width:1.0;"/></g><!--link users to creates--><g id="link_users_creates"><path d="M928.16,120.13 C883.45,120.13 803.97,120.13 803.97,120.13 C803.97,120.13 803.97,254.41 803.97,280.64 " fill="none" id="users-creates" style="stroke:#E7E7E7;stroke-width:1.0;"/><text fill="#FFFFFF" font-family="sans-serif" font-size="11" lengthAdjust="spacing" textLength="7" x="795.97" y="135.5004">1</text></g><!--link creates to notes--><g id="link_creates_notes"><path d="M758.82,312.03 C758.82,366.65 758.82,485.13 758.82,485.13 C758.82,485.13 476.4,485.13 382.08,485.13 " fill="none" id="creates-notes" style="stroke:#E7E7E7;stroke-width:1.0;"/><text fill="#FFFFFF" font-family="sans-serif" font-size="11" lengthAdjust="spacing" textLength="8" x="648" y="482.3404">N</text></g><!--link tags to tagged--><g id="link_tags_tagged"><path d="M299.33,137.55 C299.33,174.66 299.33,256.92 299.33,279.32 " fill="none" id="tags-tagged" style="stroke:#E7E7E7;stroke-width:1.0;"/><text fill="#FFFFFF" font-family="sans-serif" font-size="11" lengthAdjust="spacing" textLength="8" x="290.33" y="205.6404">N</text></g><!--link tagged to notes--><g id="link_tagged_notes"><path d="M327.56,304.71 C327.56,342.27 327.56,423.72 327.56,460.41 " fill="none" id="tagged-notes" style="stroke:#E7E7E7;stroke-width:1.0;"/><text fill="#FFFFFF" font-family="sans-serif" font-size="11" lengthAdjust="spacing" textLength="9" x="317.56" y="379.7704">M</text></g><!--link permissions to shares--><g id="link_permissions_shares"><path d="M496.82,137.55 C496.82,167.16 496.82,225.49 496.82,259.25 " fill="none" id="permissions-shares" style="stroke:#E7E7E7;stroke-width:1.0;"/><text fill="#FFFFFF" font-family="sans-serif" font-size="11" lengthAdjust="spacing" textLength="7" x="488.82" y="195.6104">1</text></g><!--link shares to notes--><g id="link_shares_notes"><path d="M496.82,310.81 C496.82,362.32 496.82,473.13 496.82,473.13 C496.82,473.13 424.74,473.13 382.22,473.13 " fill="none" id="shares-notes" style="stroke:#E7E7E7;stroke-width:1.0;"/><text fill="#FFFFFF" font-family="sans-serif" font-size="11" lengthAdjust="spacing" textLength="9" x="486.82" y="446.4804">M</text></g><!--SRC=[RL9BJyCm3BxdL_Z83aNRn13i16oynWg80dVJcZQYJQh47HJ4VyUXb5M8InJ7tyEF77b6nsb1HlaNRMfqM45QelV7p4u_DKoNgJM9VYSO3o2bDiHjJM0T5rOfCgovXSQJy_2X07GcHmWDLYJNJFkwnFQwYsenUBKkIx3aGNY1lg1CVVxg6Slqlrv1c6cJoutfZGSKnhnZ1ExbCW0m7-HhSfNsNblp1pOGts9Ycr4WEogH0wVGDQIEiAlhRqQiSih-IVW2NS_eXXHDebv8zOBHTTIrhBwx266dg7w4exW73Di8Kfs1-l7PujGHcUnxl-gsHCCFyHesuYz4cEnEnzEztTbEqXY8iONfFemFvvFPV7O03_SB2EcHsZc_NOEtZKifhB7x5i8VgHLk4EuQ6Mn5SxYfoQoML_q3d9gDTjPKCdYrUeotWFszw4Gp9EIa4dYCrPAUiIbP6AaDMvsB-rbqeDPeyWPpqPRw5rPqNIkvv0i0]--></g></svg>