<svg xmlns="http://www.w3.org/2000/svg" viewBox="0 -0.5 50 50" shape-rendering="crispEdges">
    <path stroke="#99d9ea" d="M14 14h1M14 15h1M14 16h1M14 17h1M14 18h1M15 19h1M16 20h1M13 21h1M16 21h1M13 22h1M16 22h1M13 23h1M17 23h1M13 24h1M17 24h1M13 25h1M13 26h1M18 26h2M13 27h1M17 28h3M14 29h1M16 29h1M20 29h1M14 30h1M21 30h1M15 31h1M21 31h1M15 32h1M21 32h1M26 32h2M16 33h1M20 33h1M25 33h1M17 34h2M23 34h2M20 35h3" />
    <path stroke="#22b14c" d="M20 16h4M21 17h1M20 20h1M20 21h1M21 22h1M21 23h1M20 24h1M25 24h1M29 24h5M20 25h1M24 25h2M27 25h3M32 25h4M20 26h1M22 26h3M30 26h2M35 26h2M29 27h5M36 27h2M21 28h4M26 28h3M30 28h7M22 29h4M28 29h2M31 29h5M23 30h5M29 30h2M25 31h4M30 31h1M28 32h3" />
    <path stroke="#167030" d="M19 17h2M19 18h2M18 19h3M28 23h4M26 24h3M26 25h1M25 26h1M27 27h2M29 28h1M30 29h1" />
    <path stroke="#aef72f" d="M22 17h3M21 18h1M23 18h3M21 19h2M24 19h2M21 20h3M25 20h2M21 21h3M25 21h2M22 22h1M25 22h2M22 23h1M24 23h2M21 24h1M23 24h2M22 25h2" />
    <path stroke="#e4ff9c" d="M22 18h1M23 19h1M24 20h1M24 21h1M23 22h2M23 23h1M22 24h1" />
    <path stroke="#a8e61d" d="M21 25h1M30 25h2M21 26h1M26 26h4M32 26h3M20 27h7M34 27h2M25 28h1M26 29h2M28 30h1M29 31h1" />
</svg>